<?xml version="1.0" encoding="UTF-8" standalone="no"?>
<!DOCTYPE svg PUBLIC "-//W3C//DTD SVG 1.1//EN"
 "http://www.w3.org/Graphics/SVG/1.1/DTD/svg11.dtd">
<!-- Generated by graphviz version 2.38.0 (20140413.2041)
 -->
<!-- Title: signals Pages: 1 -->
<svg width="458pt" height="808pt"
 viewBox="0.00 0.00 457.85 807.63" xmlns="http://www.w3.org/2000/svg" xmlns:xlink="http://www.w3.org/1999/xlink">
<g id="graph0" class="graph" transform="scale(1 1) rotate(0) translate(4 803.628)">
<title>signals</title>
<polygon fill="white" stroke="none" points="-4,4 -4,-803.628 453.85,-803.628 453.85,4 -4,4"/>
<!-- config_models -->
<g id="node1" class="node"><title>config_models</title>
<polygon fill="none" stroke="black" stroke-width="2" points="121.894,-799.628 31.8944,-765.628 121.894,-731.628 211.894,-765.628 121.894,-799.628"/>
<text text-anchor="middle" x="121.894" y="-769.028" font-family="Times,serif" font-size="12.00">config.models :</text>
<text text-anchor="middle" x="121.894" y="-756.028" font-family="Times,serif" font-size="12.00">Signal model</text>
</g>
<!-- module_changes -->
<g id="node3" class="node"><title>module_changes</title>
<ellipse fill="none" stroke="black" cx="121.894" cy="-668.605" rx="87.8629" ry="24.0833"/>
<text text-anchor="middle" x="121.894" y="-672.005" font-family="Times,serif" font-size="12.00">changes :</text>
<text text-anchor="middle" x="121.894" y="-659.005" font-family="Times,serif" font-size="12.00">Signal (model, model)</text>
</g>
<!-- config_models&#45;&gt;module_changes -->
<g id="edge1" class="edge"><title>config_models&#45;&gt;module_changes</title>
<path fill="none" stroke="black" d="M121.894,-731.394C121.894,-722.139 121.894,-712.088 121.894,-702.833"/>
<polygon fill="black" stroke="black" points="125.395,-702.809 121.894,-692.809 118.395,-702.809 125.395,-702.809"/>
</g>
<!-- module_processing_actions -->
<g id="node2" class="node"><title>module_processing_actions</title>
<polygon fill="none" stroke="black" points="449.806,-657.817 449.806,-679.393 400.066,-694.65 329.723,-694.65 279.983,-679.393 279.983,-657.817 329.723,-642.56 400.066,-642.56 449.806,-657.817"/>
<text text-anchor="middle" x="364.894" y="-672.005" font-family="Times,serif" font-size="12.00">processingActions :</text>
<text text-anchor="middle" x="364.894" y="-659.005" font-family="Times,serif" font-size="12.00">Mailbox Bool</text>
</g>
<!-- module_external_changes -->
<g id="node4" class="node"><title>module_external_changes</title>
<ellipse fill="none" stroke="black" cx="121.894" cy="-581.541" rx="118.588" ry="24.0833"/>
<text text-anchor="middle" x="121.894" y="-584.941" font-family="Times,serif" font-size="12.00">externalChanges :</text>
<text text-anchor="middle" x="121.894" y="-571.941" font-family="Times,serif" font-size="12.00">Signal (Maybe (model, model))</text>
</g>
<!-- module_processing_actions&#45;&gt;module_external_changes -->
<g id="edge11" class="edge"><title>module_processing_actions&#45;&gt;module_external_changes</title>
<path fill="none" stroke="black" stroke-dasharray="5,2" d="M310.058,-648.409C274.183,-635.851 227.078,-619.362 188.974,-606.023"/>
<polygon fill="black" stroke="black" points="190.088,-602.705 179.493,-602.704 187.775,-609.311 190.088,-602.705"/>
</g>
<!-- module_changes&#45;&gt;module_external_changes -->
<g id="edge2" class="edge"><title>module_changes&#45;&gt;module_external_changes</title>
<path fill="none" stroke="black" d="M121.894,-644.361C121.894,-635.547 121.894,-625.33 121.894,-615.772"/>
<polygon fill="black" stroke="black" points="125.395,-615.757 121.894,-605.757 118.395,-615.757 125.395,-615.757"/>
</g>
<!-- module_possible_updates -->
<g id="node7" class="node"><title>module_possible_updates</title>
<ellipse fill="none" stroke="black" cx="108.894" cy="-484.458" rx="108.789" ry="24.0833"/>
<text text-anchor="middle" x="108.894" y="-487.858" font-family="Times,serif" font-size="12.00">possibleUpdates :</text>
<text text-anchor="middle" x="108.894" y="-474.858" font-family="Times,serif" font-size="12.00">Signal (Maybe HashUpdate)</text>
</g>
<!-- module_external_changes&#45;&gt;module_possible_updates -->
<g id="edge4" class="edge"><title>module_external_changes&#45;&gt;module_possible_updates</title>
<path fill="none" stroke="black" stroke-width="2" d="M118.681,-557.037C117.107,-545.523 115.183,-531.456 113.46,-518.849"/>
<polygon fill="black" stroke="black" stroke-width="2" points="116.893,-518.125 112.071,-508.691 109.958,-519.073 116.893,-518.125"/>
<text text-anchor="middle" x="167.394" y="-529.9" font-family="Times,serif" font-size="12.00"> &#160;config.delta2update</text>
</g>
<!-- history_hash -->
<g id="node5" class="node"><title>history_hash</title>
<polygon fill="none" stroke="black" points="354.894,-599.541 270.894,-599.541 270.894,-563.541 354.894,-563.541 354.894,-599.541"/>
<text text-anchor="middle" x="312.894" y="-584.941" font-family="Times,serif" font-size="12.00">History.hash :</text>
<text text-anchor="middle" x="312.894" y="-571.941" font-family="Times,serif" font-size="12.00">Signal String</text>
</g>
<!-- module_locations -->
<g id="node6" class="node"><title>module_locations</title>
<ellipse fill="none" stroke="black" cx="312.894" cy="-484.458" rx="77.1494" ry="24.0833"/>
<text text-anchor="middle" x="312.894" y="-487.858" font-family="Times,serif" font-size="12.00">locations :</text>
<text text-anchor="middle" x="312.894" y="-474.858" font-family="Times,serif" font-size="12.00">Signal (List String)</text>
</g>
<!-- history_hash&#45;&gt;module_locations -->
<g id="edge3" class="edge"><title>history_hash&#45;&gt;module_locations</title>
<path fill="none" stroke="black" stroke-width="2" d="M312.894,-563.101C312.894,-550.763 312.894,-533.829 312.894,-518.924"/>
<polygon fill="black" stroke="black" stroke-width="2" points="316.395,-518.524 312.894,-508.524 309.395,-518.524 316.395,-518.524"/>
<text text-anchor="middle" x="346.394" y="-529.9" font-family="Times,serif" font-size="12.00"> &#160;config.prefix</text>
</g>
<!-- module_actual_updates -->
<g id="node8" class="node"><title>module_actual_updates</title>
<ellipse fill="none" stroke="black" cx="175.894" cy="-399.375" rx="82.9636" ry="24.0833"/>
<text text-anchor="middle" x="175.894" y="-402.775" font-family="Times,serif" font-size="12.00">actualUpdates :</text>
<text text-anchor="middle" x="175.894" y="-389.775" font-family="Times,serif" font-size="12.00">Signal (HashUpdate)</text>
</g>
<!-- module_locations&#45;&gt;module_actual_updates -->
<g id="edge6" class="edge"><title>module_locations&#45;&gt;module_actual_updates</title>
<path fill="none" stroke="black" stroke-dasharray="5,2" d="M278.677,-462.707C260.67,-451.787 238.405,-438.284 219.206,-426.641"/>
<polygon fill="black" stroke="black" points="220.993,-423.631 210.627,-421.438 217.363,-429.616 220.993,-423.631"/>
</g>
<!-- module_actions -->
<g id="node10" class="node"><title>module_actions</title>
<ellipse fill="none" stroke="black" cx="288.894" cy="-314.291" rx="79.3924" ry="24.0833"/>
<text text-anchor="middle" x="288.894" y="-317.691" font-family="Times,serif" font-size="12.00">actions :</text>
<text text-anchor="middle" x="288.894" y="-304.691" font-family="Times,serif" font-size="12.00">Signal (List Action)</text>
</g>
<!-- module_locations&#45;&gt;module_actions -->
<g id="edge7" class="edge"><title>module_locations&#45;&gt;module_actions</title>
<path fill="none" stroke="black" stroke-width="2" d="M309.608,-460.428C305.472,-431.45 298.341,-381.483 293.621,-348.409"/>
<polygon fill="black" stroke="black" stroke-width="2" points="297.058,-347.718 292.18,-338.313 290.128,-348.707 297.058,-347.718"/>
<text text-anchor="middle" x="361.394" y="-396.275" font-family="Times,serif" font-size="12.00"> &#160;config.location2action</text>
</g>
<!-- module_possible_updates&#45;&gt;module_actual_updates -->
<g id="edge5" class="edge"><title>module_possible_updates&#45;&gt;module_actual_updates</title>
<path fill="none" stroke="black" d="M127.202,-460.755C134.588,-451.596 143.224,-440.888 151.155,-431.053"/>
<polygon fill="black" stroke="black" points="154.056,-433.031 157.609,-423.05 148.607,-428.637 154.056,-433.031"/>
</g>
<!-- module_update_tasks -->
<g id="node9" class="node"><title>module_update_tasks</title>
<ellipse fill="none" stroke="black" cx="181.894" cy="-248.208" rx="72.6644" ry="24.0833"/>
<text text-anchor="middle" x="181.894" y="-251.608" font-family="Times,serif" font-size="12.00">updateTasks :</text>
<text text-anchor="middle" x="181.894" y="-238.608" font-family="Times,serif" font-size="12.00">Signal (Task () ())</text>
</g>
<!-- module_actual_updates&#45;&gt;module_update_tasks -->
<g id="edge9" class="edge"><title>module_actual_updates&#45;&gt;module_update_tasks</title>
<path fill="none" stroke="black" d="M176.832,-375.067C177.831,-350.219 179.423,-310.652 180.555,-282.519"/>
<polygon fill="black" stroke="black" points="184.059,-282.484 180.964,-272.352 177.064,-282.203 184.059,-282.484"/>
</g>
<!-- module_actual_updates&#45;&gt;module_actions -->
<g id="edge8" class="edge"><title>module_actual_updates&#45;&gt;module_actions</title>
<path fill="none" stroke="black" stroke-dasharray="5,2" d="M205.289,-376.762C219.414,-366.377 236.501,-353.814 251.537,-342.759"/>
<polygon fill="black" stroke="black" points="253.664,-345.539 259.647,-336.795 249.517,-339.899 253.664,-345.539"/>
</g>
<!-- module_start -->
<g id="node12" class="node"><title>module_start</title>
<ellipse fill="none" stroke="black" cx="217.894" cy="-97.0416" rx="72.6644" ry="24.0833"/>
<text text-anchor="middle" x="217.894" y="-100.442" font-family="Times,serif" font-size="12.00">start :</text>
<text text-anchor="middle" x="217.894" y="-87.4416" font-family="Times,serif" font-size="12.00">Signal (Task () ())</text>
</g>
<!-- module_update_tasks&#45;&gt;module_start -->
<g id="edge14" class="edge"><title>module_update_tasks&#45;&gt;module_start</title>
<path fill="none" stroke="black" d="M187.441,-224.228C193.448,-199.335 203.086,-159.401 209.908,-131.132"/>
<polygon fill="black" stroke="black" points="213.339,-131.836 212.283,-121.294 206.534,-130.194 213.339,-131.836"/>
</g>
<!-- module_action_tasks -->
<g id="node11" class="node"><title>module_action_tasks</title>
<ellipse fill="none" stroke="black" cx="288.894" cy="-182.125" rx="72.6644" ry="24.0833"/>
<text text-anchor="middle" x="288.894" y="-185.525" font-family="Times,serif" font-size="12.00">actionTasks :</text>
<text text-anchor="middle" x="288.894" y="-172.525" font-family="Times,serif" font-size="12.00">Signal (Task () ())</text>
</g>
<!-- module_actions&#45;&gt;module_action_tasks -->
<g id="edge12" class="edge"><title>module_actions&#45;&gt;module_action_tasks</title>
<path fill="none" stroke="black" stroke-width="2" d="M288.894,-290.02C288.894,-269.474 288.894,-239.287 288.894,-216.228"/>
<polygon fill="black" stroke="black" stroke-width="2" points="292.395,-216.195 288.894,-206.195 285.395,-216.195 292.395,-216.195"/>
<text text-anchor="middle" x="326.394" y="-245.108" font-family="Times,serif" font-size="12.00"> &#160;config.address</text>
</g>
<!-- module_action_tasks&#45;&gt;module_processing_actions -->
<g id="edge10" class="edge"><title>module_action_tasks&#45;&gt;module_processing_actions</title>
<path fill="none" stroke="black" stroke-dasharray="1,5" d="M334.6,-200.923C377.753,-221.075 435.894,-258.41 435.894,-313.291 435.894,-582.541 435.894,-582.541 435.894,-582.541 435.894,-603.181 423.422,-621.463 408.932,-635.737"/>
<polygon fill="black" stroke="black" points="406.215,-633.481 401.226,-642.827 410.955,-638.632 406.215,-633.481"/>
</g>
<!-- module_action_tasks&#45;&gt;module_start -->
<g id="edge13" class="edge"><title>module_action_tasks&#45;&gt;module_start</title>
<path fill="none" stroke="black" d="M269.868,-158.86C261.83,-149.454 252.344,-138.354 243.691,-128.228"/>
<polygon fill="black" stroke="black" points="246.131,-125.696 236.974,-120.368 240.81,-130.244 246.131,-125.696"/>
</g>
<!-- config_port -->
<g id="node13" class="node"><title>config_port</title>
<polygon fill="none" stroke="black" stroke-width="2" points="217.894,-36 186.712,-18 217.894,-3.55271e-15 249.076,-18 217.894,-36"/>
<text text-anchor="middle" x="217.894" y="-14.9" font-family="Times,serif" font-size="12.00">port</text>
</g>
<!-- module_start&#45;&gt;config_port -->
<g id="edge15" class="edge"><title>module_start&#45;&gt;config_port</title>
<path fill="none" stroke="black" d="M217.894,-72.9266C217.894,-64.6078 217.894,-55.1414 217.894,-46.4866"/>
<polygon fill="black" stroke="black" points="221.395,-46.4638 217.894,-36.4639 214.395,-46.4639 221.395,-46.4638"/>
</g>
</g>
</svg>
