<?xml version="1.0" encoding="UTF-8" standalone="no"?>
<!DOCTYPE svg PUBLIC "-//W3C//DTD SVG 1.1//EN"
 "http://www.w3.org/Graphics/SVG/1.1/DTD/svg11.dtd">
<!-- Generated by graphviz version 2.38.0 (20140413.2041)
 -->
<!-- Title: signals Pages: 1 -->
<svg width="430pt" height="719pt"
 viewBox="0.00 0.00 429.89 718.58" xmlns="http://www.w3.org/2000/svg" xmlns:xlink="http://www.w3.org/1999/xlink">
<g id="graph0" class="graph" transform="scale(1 1) rotate(0) translate(4 714.583)">
<title>signals</title>
<polygon fill="white" stroke="none" points="-4,4 -4,-714.583 425.894,-714.583 425.894,4 -4,4"/>
<!-- config_models -->
<g id="node1" class="node"><title>config_models</title>
<polygon fill="none" stroke="black" stroke-width="2" points="108.894,-710.583 18.8944,-676.583 108.894,-642.583 198.894,-676.583 108.894,-710.583"/>
<text text-anchor="middle" x="108.894" y="-679.983" font-family="Times,serif" font-size="12.00">config.models :</text>
<text text-anchor="middle" x="108.894" y="-666.983" font-family="Times,serif" font-size="12.00">Signal model</text>
</g>
<!-- module_changes -->
<g id="node2" class="node"><title>module_changes</title>
<ellipse fill="none" stroke="black" cx="108.894" cy="-581.541" rx="87.8629" ry="24.0833"/>
<text text-anchor="middle" x="108.894" y="-584.941" font-family="Times,serif" font-size="12.00">changes :</text>
<text text-anchor="middle" x="108.894" y="-571.941" font-family="Times,serif" font-size="12.00">Signal (model, model)</text>
</g>
<!-- config_models&#45;&gt;module_changes -->
<g id="edge1" class="edge"><title>config_models&#45;&gt;module_changes</title>
<path fill="none" stroke="black" d="M108.894,-642.518C108.894,-633.903 108.894,-624.614 108.894,-615.98"/>
<polygon fill="black" stroke="black" points="112.395,-615.862 108.894,-605.862 105.395,-615.862 112.395,-615.862"/>
</g>
<!-- module_possible_updates -->
<g id="node5" class="node"><title>module_possible_updates</title>
<ellipse fill="none" stroke="black" cx="108.894" cy="-484.458" rx="108.789" ry="24.0833"/>
<text text-anchor="middle" x="108.894" y="-487.858" font-family="Times,serif" font-size="12.00">possibleUpdates :</text>
<text text-anchor="middle" x="108.894" y="-474.858" font-family="Times,serif" font-size="12.00">Signal (Maybe HashUpdate)</text>
</g>
<!-- module_changes&#45;&gt;module_possible_updates -->
<g id="edge3" class="edge"><title>module_changes&#45;&gt;module_possible_updates</title>
<path fill="none" stroke="black" stroke-width="2" d="M108.894,-557.037C108.894,-545.523 108.894,-531.456 108.894,-518.849"/>
<polygon fill="black" stroke="black" stroke-width="2" points="112.395,-518.691 108.894,-508.691 105.395,-518.691 112.395,-518.691"/>
<text text-anchor="middle" x="159.394" y="-529.9" font-family="Times,serif" font-size="12.00"> &#160;config.delta2update</text>
</g>
<!-- history_hash -->
<g id="node3" class="node"><title>history_hash</title>
<polygon fill="none" stroke="black" points="354.894,-599.541 270.894,-599.541 270.894,-563.541 354.894,-563.541 354.894,-599.541"/>
<text text-anchor="middle" x="312.894" y="-584.941" font-family="Times,serif" font-size="12.00">History.hash :</text>
<text text-anchor="middle" x="312.894" y="-571.941" font-family="Times,serif" font-size="12.00">Signal String</text>
</g>
<!-- module_locations -->
<g id="node4" class="node"><title>module_locations</title>
<ellipse fill="none" stroke="black" cx="312.894" cy="-484.458" rx="77.1494" ry="24.0833"/>
<text text-anchor="middle" x="312.894" y="-487.858" font-family="Times,serif" font-size="12.00">locations :</text>
<text text-anchor="middle" x="312.894" y="-474.858" font-family="Times,serif" font-size="12.00">Signal (List String)</text>
</g>
<!-- history_hash&#45;&gt;module_locations -->
<g id="edge2" class="edge"><title>history_hash&#45;&gt;module_locations</title>
<path fill="none" stroke="black" stroke-width="2" d="M312.894,-563.101C312.894,-550.763 312.894,-533.829 312.894,-518.924"/>
<polygon fill="black" stroke="black" stroke-width="2" points="316.395,-518.524 312.894,-508.524 309.395,-518.524 316.395,-518.524"/>
<text text-anchor="middle" x="346.394" y="-529.9" font-family="Times,serif" font-size="12.00"> &#160;config.prefix</text>
</g>
<!-- module_actual_updates -->
<g id="node6" class="node"><title>module_actual_updates</title>
<ellipse fill="none" stroke="black" cx="193.894" cy="-399.375" rx="82.9636" ry="24.0833"/>
<text text-anchor="middle" x="193.894" y="-402.775" font-family="Times,serif" font-size="12.00">actualUpdates :</text>
<text text-anchor="middle" x="193.894" y="-389.775" font-family="Times,serif" font-size="12.00">Signal (HashUpdate)</text>
</g>
<!-- module_locations&#45;&gt;module_actual_updates -->
<g id="edge5" class="edge"><title>module_locations&#45;&gt;module_actual_updates</title>
<path fill="none" stroke="black" stroke-dasharray="5,2" d="M282.558,-462.278C267.429,-451.715 248.958,-438.819 232.799,-427.537"/>
<polygon fill="black" stroke="black" points="234.792,-424.66 224.589,-421.805 230.785,-430.4 234.792,-424.66"/>
</g>
<!-- module_actions -->
<g id="node8" class="node"><title>module_actions</title>
<ellipse fill="none" stroke="black" cx="300.894" cy="-314.291" rx="79.3924" ry="24.0833"/>
<text text-anchor="middle" x="300.894" y="-317.691" font-family="Times,serif" font-size="12.00">actions :</text>
<text text-anchor="middle" x="300.894" y="-304.691" font-family="Times,serif" font-size="12.00">Signal (List Action)</text>
</g>
<!-- module_locations&#45;&gt;module_actions -->
<g id="edge6" class="edge"><title>module_locations&#45;&gt;module_actions</title>
<path fill="none" stroke="black" stroke-width="2" d="M311.226,-460.075C309.157,-431.084 305.617,-381.478 303.267,-348.538"/>
<polygon fill="black" stroke="black" stroke-width="2" points="306.752,-348.201 302.549,-338.476 299.77,-348.699 306.752,-348.201"/>
<text text-anchor="middle" x="365.394" y="-396.275" font-family="Times,serif" font-size="12.00"> &#160;config.location2action</text>
</g>
<!-- module_possible_updates&#45;&gt;module_actual_updates -->
<g id="edge4" class="edge"><title>module_possible_updates&#45;&gt;module_actual_updates</title>
<path fill="none" stroke="black" d="M132.121,-460.755C141.851,-451.244 153.291,-440.062 163.665,-429.922"/>
<polygon fill="black" stroke="black" points="166.285,-432.255 170.99,-422.762 161.392,-427.249 166.285,-432.255"/>
</g>
<!-- module_update_tasks -->
<g id="node7" class="node"><title>module_update_tasks</title>
<ellipse fill="none" stroke="black" cx="196.894" cy="-248.208" rx="72.6644" ry="24.0833"/>
<text text-anchor="middle" x="196.894" y="-251.608" font-family="Times,serif" font-size="12.00">updateTasks :</text>
<text text-anchor="middle" x="196.894" y="-238.608" font-family="Times,serif" font-size="12.00">Signal (Task () ())</text>
</g>
<!-- module_actual_updates&#45;&gt;module_update_tasks -->
<g id="edge8" class="edge"><title>module_actual_updates&#45;&gt;module_update_tasks</title>
<path fill="none" stroke="black" d="M194.363,-375.067C194.863,-350.219 195.659,-310.652 196.224,-282.519"/>
<polygon fill="black" stroke="black" points="199.727,-282.42 196.429,-272.352 192.729,-282.279 199.727,-282.42"/>
</g>
<!-- module_actual_updates&#45;&gt;module_actions -->
<g id="edge7" class="edge"><title>module_actual_updates&#45;&gt;module_actions</title>
<path fill="none" stroke="black" stroke-dasharray="5,2" d="M222.007,-376.546C235.154,-366.337 250.964,-354.061 264.967,-343.188"/>
<polygon fill="black" stroke="black" points="267.217,-345.872 272.969,-336.975 262.924,-340.343 267.217,-345.872"/>
</g>
<!-- module_start -->
<g id="node10" class="node"><title>module_start</title>
<ellipse fill="none" stroke="black" cx="228.894" cy="-97.0416" rx="72.6644" ry="24.0833"/>
<text text-anchor="middle" x="228.894" y="-100.442" font-family="Times,serif" font-size="12.00">start :</text>
<text text-anchor="middle" x="228.894" y="-87.4416" font-family="Times,serif" font-size="12.00">Signal (Task () ())</text>
</g>
<!-- module_update_tasks&#45;&gt;module_start -->
<g id="edge11" class="edge"><title>module_update_tasks&#45;&gt;module_start</title>
<path fill="none" stroke="black" d="M201.894,-223.901C207.249,-198.943 215.788,-159.136 221.828,-130.982"/>
<polygon fill="black" stroke="black" points="225.254,-131.697 223.93,-121.185 218.41,-130.229 225.254,-131.697"/>
</g>
<!-- module_action_tasks -->
<g id="node9" class="node"><title>module_action_tasks</title>
<ellipse fill="none" stroke="black" cx="298.894" cy="-182.125" rx="72.6644" ry="24.0833"/>
<text text-anchor="middle" x="298.894" y="-185.525" font-family="Times,serif" font-size="12.00">actionTasks :</text>
<text text-anchor="middle" x="298.894" y="-172.525" font-family="Times,serif" font-size="12.00">Signal (Task () ())</text>
</g>
<!-- module_actions&#45;&gt;module_action_tasks -->
<g id="edge9" class="edge"><title>module_actions&#45;&gt;module_action_tasks</title>
<path fill="none" stroke="black" stroke-width="2" d="M300.537,-290.02C300.221,-269.474 299.757,-239.287 299.403,-216.228"/>
<polygon fill="black" stroke="black" stroke-width="2" points="302.902,-216.14 299.249,-206.195 295.903,-216.247 302.902,-216.14"/>
<text text-anchor="middle" x="338.394" y="-245.108" font-family="Times,serif" font-size="12.00"> &#160;config.address</text>
</g>
<!-- module_action_tasks&#45;&gt;module_start -->
<g id="edge10" class="edge"><title>module_action_tasks&#45;&gt;module_start</title>
<path fill="none" stroke="black" d="M280.136,-158.86C272.211,-149.454 262.859,-138.354 254.328,-128.228"/>
<polygon fill="black" stroke="black" points="256.825,-125.76 247.705,-120.368 251.472,-130.271 256.825,-125.76"/>
</g>
<!-- config_port -->
<g id="node11" class="node"><title>config_port</title>
<polygon fill="none" stroke="black" stroke-width="2" points="228.894,-36 197.712,-18 228.894,-3.55271e-15 260.076,-18 228.894,-36"/>
<text text-anchor="middle" x="228.894" y="-14.9" font-family="Times,serif" font-size="12.00">port</text>
</g>
<!-- module_start&#45;&gt;config_port -->
<g id="edge12" class="edge"><title>module_start&#45;&gt;config_port</title>
<path fill="none" stroke="black" d="M228.894,-72.9266C228.894,-64.6078 228.894,-55.1414 228.894,-46.4866"/>
<polygon fill="black" stroke="black" points="232.395,-46.4638 228.894,-36.4639 225.395,-46.4639 232.395,-46.4638"/>
</g>
</g>
</svg>
