<?xml version="1.0" encoding="UTF-8" standalone="no"?>
<!DOCTYPE svg PUBLIC "-//W3C//DTD SVG 1.1//EN"
 "http://www.w3.org/Graphics/SVG/1.1/DTD/svg11.dtd">
<!-- Generated by graphviz version 2.38.0 (20140413.2041)
 -->
<!-- Title: signals Pages: 1 -->
<svg width="430pt" height="674pt"
 viewBox="0.00 0.00 429.89 674.50" xmlns="http://www.w3.org/2000/svg" xmlns:xlink="http://www.w3.org/1999/xlink">
<g id="graph0" class="graph" transform="scale(1 1) rotate(0) translate(4 670.5)">
<title>signals</title>
<polygon fill="white" stroke="none" points="-4,4 -4,-670.5 425.894,-670.5 425.894,4 -4,4"/>
<!-- config_models -->
<g id="node1" class="node"><title>config_models</title>
<polygon fill="none" stroke="black" points="153.894,-666.5 63.8944,-666.5 63.8944,-630.5 153.894,-630.5 153.894,-666.5"/>
<text text-anchor="middle" x="108.894" y="-651.9" font-family="Times,serif" font-size="12.00">config.models :</text>
<text text-anchor="middle" x="108.894" y="-638.9" font-family="Times,serif" font-size="12.00">Signal model</text>
</g>
<!-- module_changes -->
<g id="node2" class="node"><title>module_changes</title>
<ellipse fill="none" stroke="black" cx="108.894" cy="-569.458" rx="87.8629" ry="24.0833"/>
<text text-anchor="middle" x="108.894" y="-572.858" font-family="Times,serif" font-size="12.00">changes :</text>
<text text-anchor="middle" x="108.894" y="-559.858" font-family="Times,serif" font-size="12.00">Signal (model, model)</text>
</g>
<!-- config_models&#45;&gt;module_changes -->
<g id="edge1" class="edge"><title>config_models&#45;&gt;module_changes</title>
<path fill="none" stroke="black" d="M108.894,-630.402C108.894,-622.543 108.894,-612.939 108.894,-603.742"/>
<polygon fill="black" stroke="black" points="112.395,-603.645 108.894,-593.645 105.395,-603.645 112.395,-603.645"/>
</g>
<!-- module_possible_updates -->
<g id="node5" class="node"><title>module_possible_updates</title>
<ellipse fill="none" stroke="black" cx="108.894" cy="-472.375" rx="108.789" ry="24.0833"/>
<text text-anchor="middle" x="108.894" y="-475.775" font-family="Times,serif" font-size="12.00">possibleUpdates :</text>
<text text-anchor="middle" x="108.894" y="-462.775" font-family="Times,serif" font-size="12.00">Signal (Maybe HashUpdate)</text>
</g>
<!-- module_changes&#45;&gt;module_possible_updates -->
<g id="edge3" class="edge"><title>module_changes&#45;&gt;module_possible_updates</title>
<path fill="none" stroke="black" stroke-width="2" d="M108.894,-544.954C108.894,-533.44 108.894,-519.373 108.894,-506.766"/>
<polygon fill="black" stroke="black" stroke-width="2" points="112.395,-506.608 108.894,-496.608 105.395,-506.608 112.395,-506.608"/>
<text text-anchor="middle" x="159.394" y="-517.816" font-family="Times,serif" font-size="12.00"> &#160;config.delta2update</text>
</g>
<!-- history_hash -->
<g id="node3" class="node"><title>history_hash</title>
<polygon fill="none" stroke="black" points="354.894,-587.458 270.894,-587.458 270.894,-551.458 354.894,-551.458 354.894,-587.458"/>
<text text-anchor="middle" x="312.894" y="-572.858" font-family="Times,serif" font-size="12.00">History.hash :</text>
<text text-anchor="middle" x="312.894" y="-559.858" font-family="Times,serif" font-size="12.00">Signal String</text>
</g>
<!-- module_locations -->
<g id="node4" class="node"><title>module_locations</title>
<ellipse fill="none" stroke="black" cx="312.894" cy="-472.375" rx="77.1494" ry="24.0833"/>
<text text-anchor="middle" x="312.894" y="-475.775" font-family="Times,serif" font-size="12.00">locations :</text>
<text text-anchor="middle" x="312.894" y="-462.775" font-family="Times,serif" font-size="12.00">Signal (List String)</text>
</g>
<!-- history_hash&#45;&gt;module_locations -->
<g id="edge2" class="edge"><title>history_hash&#45;&gt;module_locations</title>
<path fill="none" stroke="black" stroke-width="2" d="M312.894,-551.018C312.894,-538.68 312.894,-521.746 312.894,-506.841"/>
<polygon fill="black" stroke="black" stroke-width="2" points="316.395,-506.441 312.894,-496.441 309.395,-506.441 316.395,-506.441"/>
<text text-anchor="middle" x="346.394" y="-517.816" font-family="Times,serif" font-size="12.00"> &#160;config.prefix</text>
</g>
<!-- module_actual_updates -->
<g id="node6" class="node"><title>module_actual_updates</title>
<ellipse fill="none" stroke="black" cx="193.894" cy="-387.291" rx="82.9636" ry="24.0833"/>
<text text-anchor="middle" x="193.894" y="-390.691" font-family="Times,serif" font-size="12.00">actualUpdates :</text>
<text text-anchor="middle" x="193.894" y="-377.691" font-family="Times,serif" font-size="12.00">Signal (HashUpdate)</text>
</g>
<!-- module_locations&#45;&gt;module_actual_updates -->
<g id="edge5" class="edge"><title>module_locations&#45;&gt;module_actual_updates</title>
<path fill="none" stroke="black" stroke-dasharray="5,2" d="M282.558,-450.194C267.429,-439.632 248.958,-426.736 232.799,-415.454"/>
<polygon fill="black" stroke="black" points="234.792,-412.577 224.589,-409.722 230.785,-418.316 234.792,-412.577"/>
</g>
<!-- module_actions -->
<g id="node8" class="node"><title>module_actions</title>
<ellipse fill="none" stroke="black" cx="300.894" cy="-302.208" rx="79.3924" ry="24.0833"/>
<text text-anchor="middle" x="300.894" y="-305.608" font-family="Times,serif" font-size="12.00">actions :</text>
<text text-anchor="middle" x="300.894" y="-292.608" font-family="Times,serif" font-size="12.00">Signal (List Action)</text>
</g>
<!-- module_locations&#45;&gt;module_actions -->
<g id="edge6" class="edge"><title>module_locations&#45;&gt;module_actions</title>
<path fill="none" stroke="black" stroke-width="2" d="M311.226,-447.992C309.157,-419.001 305.617,-369.395 303.267,-336.455"/>
<polygon fill="black" stroke="black" stroke-width="2" points="306.752,-336.118 302.549,-326.392 299.77,-336.616 306.752,-336.118"/>
<text text-anchor="middle" x="365.394" y="-384.191" font-family="Times,serif" font-size="12.00"> &#160;config.location2action</text>
</g>
<!-- module_possible_updates&#45;&gt;module_actual_updates -->
<g id="edge4" class="edge"><title>module_possible_updates&#45;&gt;module_actual_updates</title>
<path fill="none" stroke="black" d="M132.121,-448.672C141.851,-439.161 153.291,-427.979 163.665,-417.839"/>
<polygon fill="black" stroke="black" points="166.285,-420.172 170.99,-410.679 161.392,-415.166 166.285,-420.172"/>
</g>
<!-- module_update_tasks -->
<g id="node7" class="node"><title>module_update_tasks</title>
<ellipse fill="none" stroke="black" cx="196.894" cy="-236.125" rx="72.6644" ry="24.0833"/>
<text text-anchor="middle" x="196.894" y="-239.525" font-family="Times,serif" font-size="12.00">updateTasks :</text>
<text text-anchor="middle" x="196.894" y="-226.525" font-family="Times,serif" font-size="12.00">Signal (Task () ())</text>
</g>
<!-- module_actual_updates&#45;&gt;module_update_tasks -->
<g id="edge8" class="edge"><title>module_actual_updates&#45;&gt;module_update_tasks</title>
<path fill="none" stroke="black" d="M194.363,-362.984C194.863,-338.135 195.659,-298.569 196.224,-270.436"/>
<polygon fill="black" stroke="black" points="199.727,-270.337 196.429,-260.268 192.729,-270.196 199.727,-270.337"/>
</g>
<!-- module_actual_updates&#45;&gt;module_actions -->
<g id="edge7" class="edge"><title>module_actual_updates&#45;&gt;module_actions</title>
<path fill="none" stroke="black" stroke-dasharray="5,2" d="M222.007,-364.462C235.154,-354.254 250.964,-341.978 264.967,-331.105"/>
<polygon fill="black" stroke="black" points="267.217,-333.789 272.969,-324.892 262.924,-328.26 267.217,-333.789"/>
</g>
<!-- module_start -->
<g id="node10" class="node"><title>module_start</title>
<ellipse fill="none" stroke="black" cx="228.894" cy="-91" rx="81.7463" ry="18"/>
<text text-anchor="middle" x="228.894" y="-87.9" font-family="Times,serif" font-size="12.00">start : Signal (Task () ())</text>
</g>
<!-- module_update_tasks&#45;&gt;module_start -->
<g id="edge11" class="edge"><title>module_update_tasks&#45;&gt;module_start</title>
<path fill="none" stroke="black" d="M202.036,-212.129C207.713,-186.737 216.844,-145.898 222.857,-119.004"/>
<polygon fill="black" stroke="black" points="226.305,-119.623 225.071,-109.1 219.474,-118.095 226.305,-119.623"/>
</g>
<!-- module_action_tasks -->
<g id="node9" class="node"><title>module_action_tasks</title>
<ellipse fill="none" stroke="black" cx="298.894" cy="-170.042" rx="72.6644" ry="24.0833"/>
<text text-anchor="middle" x="298.894" y="-173.442" font-family="Times,serif" font-size="12.00">actionTasks :</text>
<text text-anchor="middle" x="298.894" y="-160.442" font-family="Times,serif" font-size="12.00">Signal (Task () ())</text>
</g>
<!-- module_actions&#45;&gt;module_action_tasks -->
<g id="edge9" class="edge"><title>module_actions&#45;&gt;module_action_tasks</title>
<path fill="none" stroke="black" stroke-width="2" d="M300.537,-277.937C300.221,-257.391 299.757,-227.204 299.403,-204.144"/>
<polygon fill="black" stroke="black" stroke-width="2" points="302.902,-204.056 299.249,-194.111 295.903,-204.164 302.902,-204.056"/>
<text text-anchor="middle" x="338.394" y="-233.025" font-family="Times,serif" font-size="12.00"> &#160;config.address</text>
</g>
<!-- module_action_tasks&#45;&gt;module_start -->
<g id="edge10" class="edge"><title>module_action_tasks&#45;&gt;module_start</title>
<path fill="none" stroke="black" d="M278.648,-146.758C269.981,-137.22 259.838,-126.056 250.979,-116.306"/>
<polygon fill="black" stroke="black" points="253.517,-113.895 244.202,-108.848 248.336,-118.602 253.517,-113.895"/>
</g>
<!-- config_port -->
<g id="node11" class="node"><title>config_port</title>
<polygon fill="none" stroke="black" points="255.894,-36 201.894,-36 201.894,-0 255.894,-0 255.894,-36"/>
<text text-anchor="middle" x="228.894" y="-14.9" font-family="Times,serif" font-size="12.00">port</text>
</g>
<!-- module_start&#45;&gt;config_port -->
<g id="edge12" class="edge"><title>module_start&#45;&gt;config_port</title>
<path fill="none" stroke="black" d="M228.894,-72.8129C228.894,-64.7895 228.894,-55.0475 228.894,-46.0691"/>
<polygon fill="black" stroke="black" points="232.395,-46.0288 228.894,-36.0288 225.395,-46.0289 232.395,-46.0288"/>
</g>
</g>
</svg>
